<svg width="43" height="33" viewBox="0 0 43 33" fill="none" xmlns="http://www.w3.org/2000/svg">
<path d="M28.6627 0.0263517C27.5079 0.265726 27.0092 0.462265 26.3868 0.918335C25.8019 1.34417 25.367 1.76496 25.1158 2.14796C25.0633 2.22859 24.9583 2.34198 24.8796 2.39993C24.6959 2.54104 24.5347 2.74766 24.3472 3.07774C24.1485 3.43554 24.006 3.64468 23.8673 3.77822C23.8073 3.8387 23.736 3.94453 23.7098 4.01256C23.6311 4.24185 23.4961 4.51147 23.2524 4.94234C22.9862 5.40849 22.8437 5.71589 22.7762 5.96535C22.7537 6.05354 22.66 6.28283 22.57 6.47181C22.4763 6.66331 22.345 7.00347 22.2738 7.22773C22.1238 7.70396 21.7751 9.1654 21.7414 9.47029C21.6664 10.1279 22.1126 11.2139 22.6787 11.7406C23.1137 12.1513 24.1072 12.6703 24.9846 12.95C25.7982 13.207 27.3129 13.4817 28.1715 13.527C29.4238 13.5926 30.7736 13.4313 31.7559 13.0987C32.2658 12.9274 32.4608 12.8266 32.9932 12.4612C33.5331 12.0883 33.713 11.9421 34.058 11.5717C34.4779 11.1283 34.6391 10.7982 34.9091 9.84321L35.0815 9.22587L35.0628 8.73453C35.0328 8.03908 34.8266 6.96064 34.6054 6.33323C34.5754 6.24756 34.5154 6.0233 34.4704 5.83684C34.2979 5.0784 34.028 4.35524 33.668 3.68248C33.5706 3.50105 33.4543 3.25916 33.4056 3.14073C33.2819 2.83081 33.2444 2.77285 32.8732 2.28403C32.6857 2.03961 32.5057 1.77756 32.472 1.70197C32.4233 1.58858 32.3858 1.54827 32.262 1.49031C32.0896 1.40968 31.9508 1.29881 31.6321 0.986368C31.3434 0.701639 31.2122 0.615968 30.7436 0.421948C30.3274 0.248088 30.0049 0.13974 29.6825 0.0641477C29.405 -0.00136586 28.8876 -0.0215227 28.6627 0.0263517Z" fill="#FDF2F2"/>
<path d="M13.0917 0.0666639C12.623 0.147294 11.7907 0.495016 11.3257 0.807463C10.7221 1.2081 10.3547 1.5659 9.89349 2.19583C9.46232 2.78797 9.18112 3.30451 8.66746 4.45351C8.30003 5.27494 7.87635 6.85733 7.72263 7.99373C7.52016 9.51564 7.83886 10.642 8.77244 11.6851C9.08739 12.0354 9.36859 12.2722 9.76226 12.5192C10.5234 13.0004 11.4795 13.3154 12.6567 13.4767C13.0204 13.5245 13.1967 13.5346 13.834 13.5346C14.6214 13.5346 14.7639 13.522 15.615 13.3935C17.1672 13.1566 17.9621 12.9324 18.8769 12.4763C20.1929 11.8162 20.939 10.9317 21.0028 9.95659C21.0403 9.35438 20.7666 8.12727 20.3166 6.86993C19.668 5.0658 18.4007 2.87616 17.3847 1.80779C16.961 1.3618 16.6123 1.07959 16.0874 0.752029C15.585 0.439583 15.1313 0.260682 14.5277 0.129657C14.2652 0.0742231 14.1227 0.0591047 13.7216 0.0515455C13.4554 0.0465055 13.1704 0.0540647 13.0917 0.0666639Z" fill="#FDF2F2"/>
<path d="M37.8336 9.55343C37.2975 9.65422 36.8213 9.87092 36.094 10.3572C35.5016 10.7503 35.4753 10.773 35.1716 11.1283C34.4967 11.9119 33.8818 12.819 33.4469 13.6631C33.3569 13.842 33.162 14.2099 33.0195 14.4795C32.5096 15.4294 32.3409 15.8931 32.3109 16.4197C32.2959 16.6817 32.3034 16.8102 32.3521 16.9639C32.3859 17.0773 32.4121 17.2814 32.4121 17.4175C32.4121 17.8509 32.6258 18.2263 33.102 18.627C33.4544 18.9218 33.7469 19.0931 34.1818 19.2569C35.0291 19.5769 35.9252 19.8062 36.7051 19.907C37.2 19.9675 37.3537 19.9775 37.9086 19.9775C38.7597 19.975 39.3859 19.8793 40.0008 19.6626C40.312 19.5517 40.7206 19.3098 40.8256 19.1687C40.8594 19.1259 40.9493 19.0629 41.0281 19.0276C41.4293 18.8437 41.8679 18.4556 42.0666 18.1104C42.1154 18.0197 42.2429 17.7955 42.3441 17.614C42.6365 17.0975 42.6965 16.8632 42.6965 16.2307C42.7003 15.7797 42.6853 15.6411 42.5991 15.2858C42.5466 15.0565 42.4753 14.671 42.4416 14.4291C42.3216 13.5346 42.1379 12.8593 41.8604 12.2747C41.6917 11.922 41.3843 11.3928 41.2268 11.1812C40.9718 10.8435 40.4807 10.3194 40.2145 10.1002C39.9333 9.87092 39.3596 9.63406 38.8947 9.55595C38.6023 9.50807 38.0923 9.50556 37.8336 9.55343Z" fill="#FDF2F2"/>
<path d="M3.79336 9.58114C3.3097 9.65926 2.7248 9.89863 2.43985 10.133C2.07242 10.4353 1.44253 11.1787 1.18007 11.6196C1.00011 11.9245 0.677664 12.6829 0.546437 13.1062C0.373968 13.6681 0.235242 14.3963 0.145258 15.185C0.13401 15.3034 0.0965167 15.4622 0.0627727 15.5378C-0.0122141 15.7116 -0.0234621 16.5129 0.0477753 16.8002C0.216495 17.4754 0.595178 18.1306 1.13508 18.6748C1.42753 18.9696 2.06492 19.4156 2.39486 19.5542C3.04724 19.8314 3.92084 19.9801 4.91066 19.9775C5.78426 19.9775 6.50413 19.8742 7.19776 19.6449C8.87371 19.0956 9.84479 18.1659 10.1035 16.8581C10.1672 16.5507 10.1335 15.6562 10.051 15.3488C9.94227 14.9557 9.27489 13.517 8.96744 13.0181C8.75748 12.6804 7.68892 11.2593 7.48646 11.0527C6.70285 10.2438 5.82175 9.72729 4.97815 9.58114C4.69695 9.53075 4.09331 9.53075 3.79336 9.58114Z" fill="#FDF2F2"/>
<path d="M20.2454 14.1519C16.811 14.2477 14.4601 14.8096 13.0241 15.8779C12.683 16.1324 12.443 16.3894 11.6631 17.3369C11.0033 18.1356 10.7258 18.4355 10.3134 18.7832C10.0247 19.0276 9.13608 19.4434 6.86024 20.4009C5.32676 21.0459 4.14947 21.57 3.62081 21.8472C3.1184 22.1092 2.36104 22.6107 1.98235 22.9332C0.880049 23.8705 0.265158 24.9338 0.216416 25.977C0.182672 26.6624 0.332646 27.1915 0.868801 28.2624C1.27373 29.0738 1.42745 29.3383 1.7049 29.6936C2.73222 31.0064 4.31444 31.8782 6.15911 32.1453C6.69152 32.2209 7.9138 32.2411 8.60368 32.1806C9.3423 32.1176 10.0697 32.0143 11.1907 31.8127C12.7879 31.5255 13.4028 31.4196 13.8827 31.3516L14.3364 31.2861L14.8913 31.3365C15.195 31.3642 15.9711 31.4473 16.6085 31.5229C19.0381 31.8102 19.2143 31.8203 21.1452 31.8177C23.6048 31.8127 24.8383 31.7346 26.9379 31.4448C28.2502 31.2634 28.149 31.271 28.6701 31.3214C29.3 31.3793 29.8736 31.4751 31.1934 31.7396C33.0381 32.1075 33.503 32.1755 34.5116 32.2209C35.9251 32.2864 36.8961 32.1781 37.961 31.8379C39.0745 31.4826 40.1243 30.8325 40.7055 30.1396C42.3889 28.1389 42.9326 26.166 42.2202 24.6668C41.7028 23.5707 40.4955 22.525 38.7333 21.638C38.0847 21.3105 37.2298 20.9275 35.9926 20.4135C32.7944 19.0805 32.2995 18.7756 31.2834 17.5158C30.1324 16.0871 29.8062 15.7746 29.0638 15.4017C27.6728 14.7012 25.8994 14.3107 23.5073 14.1771C22.8736 14.1419 21.089 14.1267 20.2454 14.1519Z" fill="#FDF2F2"/>
</svg>
